<?xml version="1.0" standalone="no"?>
<!DOCTYPE svg PUBLIC "-//W3C//DTD SVG 20010904//EN"
 "http://www.w3.org/TR/2001/REC-SVG-20010904/DTD/svg10.dtd">
<svg version="1.0" xmlns="http://www.w3.org/2000/svg"
 width="201.000000pt" height="188.000000pt" viewBox="0 0 201.000000 188.000000"
 preserveAspectRatio="xMidYMid meet">
<metadata>
Created by potrace 1.15, written by Peter Selinger 2001-2017
</metadata>
<g transform="translate(0.000000,188.000000) scale(0.100000,-0.100000)"
fill="#000000" stroke="none">
<path d="M256 1864 c-142 -45 -219 -149 -220 -294 -1 -62 4 -84 27 -132 15
-31 45 -72 65 -90 l38 -34 -29 -65 c-43 -96 -60 -181 -60 -299 0 -366 267
-680 669 -787 84 -22 120 -26 239 -26 92 0 164 6 211 16 261 59 473 208 605
426 115 189 131 462 40 669 l-29 66 39 36 c21 20 51 63 65 95 71 154 3 329
-155 404 -80 37 -192 36 -272 -2 -52 -25 -130 -95 -140 -126 -4 -10 -19 -9
-70 7 -165 51 -375 54 -549 8 -85 -22 -96 -23 -104 -9 -64 114 -239 179 -370
137z m943 -139 c230 -48 460 -206 570 -389 132 -219 144 -481 34 -701 -268
-531 -1054 -639 -1481 -203 -81 83 -135 164 -171 258 -184 475 153 971 711
1050 84 12 246 5 337 -15z"/>
<path d="M602 1414 c-223 -75 -360 -268 -294 -416 61 -140 280 -170 475 -65
73 38 156 112 182 161 11 20 22 36 25 36 3 0 11 -13 18 -30 20 -45 114 -133
179 -167 93 -50 163 -66 262 -61 97 5 151 27 194 78 120 143 -20 381 -273 466
-80 27 -210 25 -273 -4 -27 -12 -61 -35 -77 -52 l-29 -31 -38 38 c-75 75 -215
94 -351 47z m208 -15 c60 -27 88 -54 116 -114 71 -151 -41 -323 -211 -324 -54
-1 -135 38 -172 83 -77 94 -70 220 18 308 70 70 161 87 249 47z m546 -2 c78
-40 124 -117 124 -207 0 -226 -289 -314 -416 -126 -75 110 -35 266 86 329 48
25 63 28 115 24 34 -2 74 -11 91 -20z"/>
<path d="M652 1353 c-116 -57 -115 -256 1 -312 53 -26 70 -26 123 -2 59 27 89
79 89 157 0 50 -5 68 -28 103 -44 67 -117 88 -185 54z"/>
<path d="M1180 1348 c-71 -48 -98 -151 -61 -234 69 -153 281 -98 281 73 0 102
-53 173 -137 180 -39 4 -55 0 -83 -19z"/>
<path d="M924 939 c-37 -10 -54 -43 -54 -102 0 -58 15 -106 45 -147 14 -19 25
-41 25 -50 0 -23 -48 -70 -88 -87 -58 -24 -107 -9 -165 50 -44 45 -50 48 -64
34 -15 -14 -15 -18 0 -41 83 -126 244 -141 335 -31 l30 37 21 -31 c69 -96 201
-107 308 -25 46 35 57 58 37 79 -16 15 -19 14 -53 -18 -90 -86 -176 -89 -245
-7 -30 37 -32 52 -9 71 46 39 78 189 49 233 -25 39 -103 55 -172 35z"/>
</g>
</svg>
