<?xml version="1.0" standalone="no"?>
<!DOCTYPE svg PUBLIC "-//W3C//DTD SVG 20010904//EN"
 "http://www.w3.org/TR/2001/REC-SVG-20010904/DTD/svg10.dtd">
<svg version="1.0" xmlns="http://www.w3.org/2000/svg"
 width="259.000000pt" height="194.000000pt" viewBox="0 0 259.000000 194.000000"
 preserveAspectRatio="xMidYMid meet">
<metadata>
Created by potrace 1.10, written by Peter Selinger 2001-2011
</metadata>
<g transform="translate(0.000000,194.000000) scale(0.050000,-0.050000)"
fill="#000000" stroke="none">
<path d="M2415 2999 c-128 -21 -268 -70 -369 -127 -75 -44 -87 -45 -110 -17
-41 50 -146 85 -252 85 -308 0 -442 -432 -191 -615 53 -39 53 -41 30 -156
-133 -662 333 -1189 1057 -1197 748 -7 1231 538 1073 1210 l-26 111 55 32
c202 116 167 495 -54 587 -129 54 -315 26 -384 -57 -19 -24 -45 -17 -159 39
-218 108 -444 143 -670 105z m510 -165 c768 -279 872 -1306 167 -1641 -574
-271 -1301 -4 -1443 532 -194 728 549 1373 1276 1109z m-1074 -35 c45 -37 22
-44 -69 -19 -79 21 -137 14 -252 -31 -40 -16 -40 -15 -2 28 69 79 241 90 323
22z m1777 -1 c30 -24 49 -47 44 -53 -6 -6 -24 0 -40 13 -34 29 -177 37 -272
16 l-70 -16 47 41 c66 57 218 56 291 -1z"/>
<path d="M2000 2423 c-128 -68 -215 -253 -190 -404 43 -254 359 -323 517 -114
219 290 -26 678 -327 518z m249 -169 c28 -79 -20 -162 -99 -171 -100 -11 -144
99 -78 194 47 67 150 53 177 -23z"/>
<path d="M2906 2421 c-189 -116 -171 -459 32 -595 173 -117 401 -10 433 202
43 286 -244 528 -465 393z m213 -165 c45 -81 10 -164 -72 -172 -100 -10 -158
100 -106 198 32 60 139 44 178 -26z"/>
<path d="M2462 1797 c-67 -25 -50 -115 32 -167 51 -31 65 -54 65 -105 1 -80
-27 -83 -127 -15 -105 71 -171 62 -139 -21 59 -153 536 -151 595 2 29 78 -32
91 -126 28 -112 -75 -142 -75 -142 1 0 46 16 70 70 105 72 47 100 147 45 164
-58 18 -231 23 -273 8z"/>
<path d="M1870 1649 c-51 -23 -54 -27 -17 -28 56 -1 107 18 107 41 0 23 -17
21 -90 -13z"/>
<path d="M3240 1640 c72 -23 120 -23 120 0 0 11 -38 19 -85 18 -72 -2 -77 -4
-35 -18z"/>
</g>
</svg>
