<?xml version="1.0" standalone="no"?>
<!DOCTYPE svg PUBLIC "-//W3C//DTD SVG 20010904//EN"
 "http://www.w3.org/TR/2001/REC-SVG-20010904/DTD/svg10.dtd">
<svg version="1.0" xmlns="http://www.w3.org/2000/svg"
 width="182.000000pt" height="217.000000pt" viewBox="0 0 182.000000 217.000000"
 preserveAspectRatio="xMidYMid meet">
<metadata>
Created by potrace 1.15, written by Peter Selinger 2001-2017
</metadata>
<g transform="translate(0.000000,217.000000) scale(0.100000,-0.100000)"
fill="#000000" stroke="none">
<path d="M1142 2143 c-41 -20 -65 -54 -84 -120 l-15 -51 33 -6 c70 -14 178
-78 249 -150 68 -68 74 -66 8 4 l-33 35 32 30 c62 59 71 130 26 204 -39 62
-145 89 -216 54z"/>
<path d="M325 1981 c-66 -40 -104 -117 -89 -178 15 -64 83 -133 130 -133 11 0
14 -6 9 -22 -3 -13 11 8 31 47 45 86 139 182 219 223 33 17 56 31 52 32 -4 0
-31 -12 -59 -26 -50 -25 -52 -26 -66 -8 -7 11 -19 26 -25 35 -39 51 -143 67
-202 30z"/>
<path d="M989 1787 c-18 -12 -44 -38 -57 -57 -21 -31 -23 -44 -19 -102 6 -96
46 -163 118 -201 48 -26 62 -28 122 -24 81 5 149 42 179 97 28 51 21 135 -16
188 -72 104 -243 156 -327 99z m192 -120 c57 -38 72 -92 46 -167 -14 -41 -68
-80 -109 -80 -45 0 -97 29 -115 63 -20 40 -13 129 13 158 45 50 113 61 165 26z"/>
<path d="M1055 1575 c-33 -32 -34 -86 -3 -115 28 -26 98 -28 120 -2 33 37 28
100 -10 128 -28 22 -80 17 -107 -11z"/>
<path d="M585 1717 c-80 -46 -145 -164 -145 -266 0 -94 49 -146 148 -158 100
-11 195 42 245 137 25 48 28 62 23 113 -8 77 -43 144 -96 180 -37 25 -125 22
-175 -6z m163 -134 c29 -18 60 -68 68 -110 12 -63 -59 -133 -133 -133 -69 1
-123 62 -123 141 0 100 102 156 188 102z"/>
<path d="M645 1495 c-29 -28 -31 -54 -10 -94 25 -49 90 -57 130 -16 52 51 15
135 -60 135 -25 0 -44 -8 -60 -25z"/>
<path d="M905 1368 c-52 -19 -86 -48 -83 -71 3 -24 65 -63 116 -73 71 -14 168
106 106 130 -10 4 -12 2 -8 -6 5 -8 2 -9 -10 -5 -10 4 -29 7 -42 7 -13 0 -24
5 -24 11 0 6 12 8 33 5 24 -5 27 -4 12 3 -26 12 -63 12 -100 -1z"/>
<path d="M1174 1159 c-10 -12 -33 -28 -51 -35 -41 -18 -128 -18 -144 -1 -10
11 -22 8 -63 -15 -70 -38 -155 -39 -209 -2 -46 31 -59 25 -24 -10 15 -15 39
-27 57 -28 16 -1 43 -2 59 -3 16 -1 41 -12 56 -23 35 -28 89 -38 122 -23 14 6
44 27 67 46 23 18 53 36 67 40 30 8 97 60 88 69 -3 3 -14 -4 -25 -15z"/>
<path d="M1265 1039 c-38 -21 -84 -41 -102 -45 -17 -3 -40 -15 -50 -27 -18
-20 -18 -20 8 -4 24 16 26 16 47 -5 28 -31 88 -161 103 -223 6 -27 13 -55 15
-62 2 -8 22 0 55 22 28 19 56 35 63 35 6 -1 -2 -8 -19 -17 -73 -39 -114 -87
-115 -135 0 -27 -2 -28 -49 -28 -27 0 -61 -4 -74 -9 -42 -16 -99 -74 -120
-121 -25 -57 -27 -168 -4 -204 31 -46 189 -121 321 -151 34 -7 81 -21 106 -31
41 -15 50 -16 90 -3 37 12 54 26 98 84 99 133 152 259 152 365 0 135 -110 241
-269 260 -36 4 -58 8 -48 9 23 1 22 28 -7 93 -28 62 -84 141 -130 180 -30 26
-31 27 -11 42 31 24 15 18 -60 -25z m349 -570 c46 -36 50 -63 20 -129 -42 -95
-91 -126 -137 -90 -43 34 -61 138 -33 189 29 52 104 66 150 30z"/>
<path d="M497 927 c-89 -122 -129 -256 -93 -311 20 -31 20 -36 2 -36 -10 0
-19 -19 -26 -55 -6 -30 -12 -55 -13 -55 -1 0 -2 53 -2 117 0 103 -3 123 -22
160 -13 23 -33 49 -45 58 -103 72 -235 7 -229 -112 1 -31 -2 -45 -13 -49 -8
-3 -18 -19 -21 -34 -5 -22 -1 -34 16 -51 19 -19 21 -28 15 -78 -4 -30 -13 -66
-22 -78 -13 -20 -13 -30 1 -88 18 -81 48 -141 77 -156 55 -30 391 12 509 62
l51 22 -50 24 c-61 29 -125 92 -160 158 -24 44 -27 61 -27 140 1 81 4 96 32
151 36 70 97 127 151 143 35 10 35 10 5 6 -39 -5 -40 -1 -12 44 11 18 19 34
17 35 -2 1 -21 8 -43 15 -22 7 -44 14 -50 16 -5 3 -27 -19 -48 -48z"/>
</g>
</svg>
