<?xml version="1.0" standalone="no"?>
<!DOCTYPE svg PUBLIC "-//W3C//DTD SVG 20010904//EN"
 "http://www.w3.org/TR/2001/REC-SVG-20010904/DTD/svg10.dtd">
<svg version="1.0" xmlns="http://www.w3.org/2000/svg"
 width="300.000000pt" height="200.000000pt" viewBox="0 0 300.000000 200.000000"
 preserveAspectRatio="xMidYMid meet">
<metadata>
Created by potrace 1.10, written by Peter Selinger 2001-2011
</metadata>
<g transform="translate(0.000000,200.000000) scale(0.100000,-0.100000)"
fill="#000000" stroke="none">
<path d="M412 1674 c-21 -15 -22 -21 -22 -173 0 -140 2 -160 18 -174 16 -14
44 -17 179 -17 142 0 162 2 176 18 14 16 17 43 17 175 0 198 12 187 -195 187
-120 0 -155 -3 -173 -16z m336 -26 c8 -8 12 -56 12 -149 0 -112 -3 -141 -16
-153 -23 -23 -295 -23 -318 0 -13 12 -16 41 -16 153 0 93 4 141 12 149 17 17
309 17 326 0z"/>
<path d="M530 1611 c-8 -6 -24 -8 -36 -5 -28 7 -51 -20 -35 -40 10 -11 9 -21
-3 -45 -31 -59 -14 -97 61 -135 59 -30 133 -16 191 37 26 24 28 54 7 84 -8 12
-14 38 -12 59 2 37 0 39 -28 42 -16 1 -52 5 -80 7 -27 3 -57 1 -65 -4z m109
-24 c30 -15 73 -93 69 -127 -6 -52 -132 -90 -191 -57 -35 19 -67 49 -67 63 0
29 52 110 78 121 35 16 81 16 111 0z"/>
<path d="M505 1546 c-32 -48 5 -76 46 -35 25 25 21 53 -8 57 -14 2 -27 -5 -38
-22z m40 -6 c0 -7 -6 -15 -12 -17 -8 -3 -13 4 -13 17 0 13 5 20 13 18 6 -3 12
-11 12 -18z"/>
<path d="M607 1563 c-25 -24 22 -80 57 -67 20 8 20 8 1 44 -14 28 -43 39 -58
23z m38 -23 c0 -7 -6 -15 -12 -17 -8 -3 -13 4 -13 17 0 13 5 20 13 18 6 -3 12
-11 12 -18z"/>
<path d="M567 1489 c8 -8 16 -8 30 0 16 9 14 10 -11 11 -22 0 -27 -3 -19 -11z"/>
<path d="M530 1471 c0 -5 13 -19 29 -30 30 -22 46 -27 37 -12 -3 4 6 13 19 19
14 7 25 17 25 23 0 8 -4 8 -15 -1 -8 -7 -21 -10 -29 -7 -7 3 -18 1 -23 -4 -7
-7 -16 -5 -27 6 -9 9 -16 12 -16 6z"/>
</g>
</svg>
