<?xml version="1.0" standalone="no"?>
<!DOCTYPE svg PUBLIC "-//W3C//DTD SVG 20010904//EN"
 "http://www.w3.org/TR/2001/REC-SVG-20010904/DTD/svg10.dtd">
<svg version="1.0" xmlns="http://www.w3.org/2000/svg"
 width="300.000000pt" height="210.000000pt" viewBox="0 0 300.000000 210.000000"
 preserveAspectRatio="xMidYMid meet">
<metadata>
Created by potrace 1.10, written by Peter Selinger 2001-2011
</metadata>
<g transform="translate(0.000000,210.000000) scale(0.100000,-0.100000)"
fill="#000000" stroke="none">
<path d="M1125 1630 c-11 -4 -31 -20 -45 -35 l-25 -27 -3 -354 c-3 -392 -2
-396 61 -434 30 -19 53 -20 395 -20 401 0 404 0 442 63 19 30 20 52 20 375 0
379 -1 385 -63 422 -30 19 -52 20 -397 19 -201 0 -374 -4 -385 -9z m782 -44
l28 -24 3 -343 c2 -247 -1 -351 -9 -371 -23 -57 -34 -58 -429 -58 l-362 0 -29
29 -29 29 0 352 0 352 29 29 29 29 371 0 370 0 28 -24z"/>
<path d="M1364 1461 c-26 -12 -46 -16 -55 -10 -65 41 -145 -55 -89 -106 17
-16 18 -20 5 -38 -8 -12 -15 -31 -15 -43 0 -11 -9 -29 -20 -39 -16 -15 -20
-31 -20 -87 0 -68 0 -68 46 -112 25 -25 60 -50 77 -56 18 -7 54 -23 81 -36 40
-19 66 -24 131 -24 78 0 86 2 183 50 56 28 110 62 121 75 44 57 34 171 -19
225 -36 37 -37 41 -5 78 60 71 -5 155 -86 112 -14 -8 -28 -6 -58 10 -55 28
-216 28 -277 1z m226 -32 c71 -16 115 -51 136 -106 10 -26 33 -70 51 -97 58
-85 42 -155 -50 -213 -29 -18 -42 -22 -47 -13 -6 9 -11 7 -19 -7 -28 -54 -191
-74 -269 -34 -22 11 -44 25 -47 31 -4 6 -10 8 -15 5 -11 -7 -54 15 -86 43 -54
47 -61 127 -14 188 16 21 37 60 46 87 33 99 168 149 314 116z m168 -21 c17
-17 15 -38 -3 -38 -12 0 -35 28 -35 44 0 11 26 6 38 -6z m-483 -18 c-12 -13
-22 -17 -28 -11 -13 13 1 31 25 31 21 0 21 -1 3 -20z"/>
<path d="M1345 1344 c-13 -14 -36 -47 -51 -71 -24 -41 -25 -47 -11 -61 23 -23
101 -20 135 5 37 28 56 86 39 121 -18 40 -78 43 -112 6z m64 -18 c7 -8 11 -27
9 -43 -2 -22 -9 -29 -30 -31 -38 -4 -56 30 -33 64 18 27 37 31 54 10z"/>
<path d="M1556 1348 c-49 -69 36 -165 132 -151 19 3 36 12 39 20 8 20 -18 72
-57 117 -39 44 -89 50 -114 14z m89 -28 c25 -27 7 -70 -29 -70 -34 0 -50 52
-24 78 17 17 32 15 53 -8z"/>
<path d="M1460 1209 c-24 -10 -24 -11 -6 -25 11 -8 32 -14 46 -14 28 0 69 24
59 35 -12 12 -74 15 -99 4z"/>
<path d="M1370 1142 c0 -15 55 -61 91 -76 27 -11 45 -13 70 -5 35 10 99 61 99
79 0 16 -11 12 -36 -15 -28 -31 -58 -32 -78 -4 l-14 21 -11 -21 c-16 -29 -55
-27 -79 4 -19 24 -42 33 -42 17z"/>
<path d="M1500 1031 c-31 -6 -33 -8 -13 -14 13 -5 31 -3 43 3 20 11 27 21 13
19 -5 -1 -24 -5 -43 -8z"/>
</g>
</svg>
