<?xml version="1.0" standalone="no"?>
<!DOCTYPE svg PUBLIC "-//W3C//DTD SVG 20010904//EN"
 "http://www.w3.org/TR/2001/REC-SVG-20010904/DTD/svg10.dtd">
<svg version="1.0" xmlns="http://www.w3.org/2000/svg"
 width="300.000000pt" height="210.000000pt" viewBox="0 0 300.000000 210.000000"
 preserveAspectRatio="xMidYMid meet">
<metadata>
Created by potrace 1.10, written by Peter Selinger 2001-2011
</metadata>
<g transform="translate(0.000000,210.000000) scale(0.050000,-0.050000)"
fill="#000000" stroke="none">
<path d="M2218 3234 c-117 -79 -117 -80 -118 -834 0 -965 -89 -880 924 -880
1004 0 916 -85 916 880 0 965 89 880 -922 880 -729 0 -732 0 -800 -46z m1604
-72 l58 -59 0 -681 c0 -936 99 -842 -881 -842 l-722 0 -59 58 -58 59 0 703 0
703 58 59 59 58 743 0 743 0 59 -58z"/>
<path d="M2741 2929 c-46 -21 -97 -26 -156 -17 -142 21 -243 -115 -155 -212
33 -36 18 -107 -52 -244 -156 -305 171 -636 630 -636 188 0 519 136 609 251
80 102 53 386 -46 468 -41 34 -39 80 9 141 97 123 18 252 -142 233 -64 -7
-122 -1 -167 18 -95 40 -437 38 -530 -2z m509 -91 c122 -53 167 -99 210 -212
23 -62 69 -143 101 -180 68 -78 80 -207 29 -306 -36 -70 -191 -166 -237 -148
-18 7 -33 2 -33 -9 0 -138 -545 -140 -630 -3 -7 11 -21 15 -32 9 -32 -20 -196
89 -228 151 -53 102 -39 218 40 329 39 54 80 133 91 174 51 190 443 301 689
195z"/>
<path d="M2687 2685 c-174 -187 -173 -292 0 -292 147 0 237 83 237 220 0 136
-138 178 -237 72z m132 -34 c13 -16 21 -54 17 -85 -9 -84 -123 -84 -132 0 -7
60 24 114 66 114 14 0 36 -13 49 -29z"/>
<path d="M3126 2715 c-108 -140 16 -321 213 -311 164 9 159 90 -16 281 -55 59
-162 76 -197 30z m165 -84 c25 -38 27 -58 10 -90 -27 -49 -111 -55 -129 -9
-46 119 52 201 119 99z"/>
<path d="M2945 2424 c-64 -9 -56 -58 12 -73 62 -14 172 19 154 47 -13 21 -103
35 -166 26z"/>
<path d="M2790 2235 c115 -158 346 -152 433 10 22 42 22 42 -33 -2 -66 -51
-104 -54 -153 -11 -32 30 -38 30 -68 0 -44 -44 -93 -40 -161 13 l-57 45 39
-55z"/>
</g>
</svg>
