<?xml version="1.0" standalone="no"?>
<!DOCTYPE svg PUBLIC "-//W3C//DTD SVG 20010904//EN"
 "http://www.w3.org/TR/2001/REC-SVG-20010904/DTD/svg10.dtd">
<svg version="1.0" xmlns="http://www.w3.org/2000/svg"
 width="900.000000pt" height="600.000000pt" viewBox="0 0 900.000000 600.000000"
 preserveAspectRatio="xMidYMid meet">
<metadata>
Created by potrace 1.10, written by Peter Selinger 2001-2011
</metadata>
<g transform="translate(0.000000,600.000000) scale(0.100000,-0.100000)"
fill="#000000" stroke="none">
<path d="M1271 5040 c-48 -20 -74 -39 -95 -72 -16 -25 -18 -66 -17 -487 l0
-460 23 -31 c12 -17 37 -40 55 -51 30 -19 51 -20 513 -19 l482 0 33 26 c73 56
70 31 71 504 1 234 -1 444 -3 467 -6 48 -46 96 -102 119 -54 23 -905 26 -960
4z m944 -88 c43 -37 45 -54 45 -471 0 -446 -2 -463 -61 -476 -58 -13 -894 -8
-919 5 -46 25 -49 50 -50 472 0 416 1 432 45 470 18 16 59 17 470 17 411 0
452 -1 470 -17z"/>
<path d="M1610 4838 c-105 -47 -100 -46 -143 -31 -48 17 -76 7 -109 -39 -22
-32 -18 -60 15 -95 l20 -22 -28 -63 c-15 -35 -34 -73 -41 -85 -9 -14 -14 -52
-14 -107 0 -77 2 -87 28 -117 54 -66 60 -70 192 -136 93 -47 97 -48 202 -51
l107 -4 117 58 c168 82 224 144 224 247 0 43 -23 126 -38 137 -4 3 -20 20 -35
39 -32 38 -30 72 4 104 30 28 25 82 -10 117 -31 31 -56 33 -115 11 -22 -9 -32
-9 -45 2 -37 32 -106 47 -206 46 -55 0 -111 -5 -125 -11z m261 -72 c26 -8 61
-22 77 -30 36 -19 82 -75 82 -100 0 -24 28 -82 62 -130 24 -34 28 -49 28 -107
0 -63 -2 -70 -32 -101 -44 -46 -102 -80 -122 -72 -11 4 -25 -1 -37 -15 -43
-45 -78 -56 -189 -55 -90 0 -111 4 -147 23 -24 13 -43 27 -43 32 0 5 -12 9
-26 9 -48 0 -133 61 -159 114 -27 53 -19 110 24 179 21 34 47 85 56 112 29 78
70 115 160 141 58 17 212 16 266 0z"/>
<path d="M1845 4702 c-40 -8 -55 -32 -55 -87 0 -44 5 -57 33 -88 42 -48 106
-66 166 -48 52 15 53 34 7 110 -55 90 -100 123 -151 113z m95 -97 c0 -27 -33
-58 -57 -53 -28 5 -46 51 -32 82 7 14 19 27 28 29 22 5 61 -32 61 -58z"/>
<path d="M1534 4665 c-40 -46 -87 -138 -82 -161 5 -27 71 -40 128 -25 53 14
94 55 111 111 10 33 9 43 -8 72 -17 29 -24 33 -69 36 -46 3 -51 0 -80 -33z
m97 -36 c9 -17 7 -27 -9 -48 -24 -33 -52 -39 -69 -15 -19 26 -16 61 7 84 23
23 51 15 71 -21z"/>
<path d="M1671 4486 c-13 -16 -1 -29 42 -45 22 -9 35 -7 60 5 42 22 42 21 27
39 -16 20 -113 21 -129 1z"/>
<path d="M1576 4403 c-8 -19 57 -86 95 -98 11 -4 37 -18 56 -31 20 -13 39 -24
44 -24 13 0 20 18 9 25 -17 11 -11 23 16 29 14 4 40 20 58 36 17 17 34 30 39
30 4 0 7 9 7 20 0 26 -36 27 -50 1 -5 -11 -24 -23 -42 -26 -25 -6 -34 -3 -48
14 l-16 22 -27 -21 c-33 -26 -68 -21 -101 15 -28 30 -32 30 -40 8z"/>
</g>
</svg>
