<?xml version="1.0" standalone="no"?>
<!DOCTYPE svg PUBLIC "-//W3C//DTD SVG 20010904//EN"
 "http://www.w3.org/TR/2001/REC-SVG-20010904/DTD/svg10.dtd">
<svg version="1.0" xmlns="http://www.w3.org/2000/svg"
 width="448.000000pt" height="316.000000pt" viewBox="0 0 448.000000 316.000000"
 preserveAspectRatio="xMidYMid meet">
<metadata>
Created by potrace 1.15, written by Peter Selinger 2001-2017
</metadata>
<g transform="translate(0.000000,316.000000) scale(0.100000,-0.100000)"
fill="#000000" stroke="none">
<path d="M3535 2944 c-77 -20 -158 -51 -205 -80 -114 -69 -223 -204 -245 -303
-5 -26 -2 -32 22 -45 15 -8 59 -42 97 -74 l69 -58 29 55 c101 195 345 186 443
-15 37 -75 39 -174 5 -252 -30 -69 -104 -138 -165 -153 -25 -6 -45 -17 -43
-23 2 -6 17 -57 33 -113 l30 -103 50 0 c197 1 405 136 494 323 21 45 44 106
50 135 20 96 11 228 -20 307 -4 11 -10 31 -13 45 -5 24 -61 113 -101 161 -27
33 -112 101 -158 127 -68 39 -157 62 -256 67 -53 2 -105 2 -116 -1z"/>
<path d="M797 2885 c-97 -20 -201 -73 -279 -144 -121 -111 -177 -231 -185
-396 -9 -183 45 -324 172 -450 109 -108 239 -165 382 -165 l72 0 17 78 c9 42
23 91 31 109 18 45 17 48 -21 50 -68 3 -151 65 -191 143 -21 41 -34 144 -23
198 23 126 131 222 249 222 59 0 126 -26 166 -62 30 -28 75 -113 65 -123 -4
-4 2 -3 13 3 11 5 31 22 45 37 14 15 53 49 88 77 l62 50 -37 71 c-117 225
-379 350 -626 302z"/>
<path d="M2835 2313 c-81 -20 -180 -95 -240 -182 -67 -97 -97 -193 -103 -321
-5 -115 6 -183 42 -272 l23 -56 -38 13 c-109 39 -337 44 -459 11 -30 -9 -55
-14 -57 -12 -2 2 2 27 8 56 19 89 7 252 -26 340 -148 401 -575 459 -774 105
-60 -105 -76 -177 -76 -330 0 -165 17 -247 76 -371 66 -139 156 -212 275 -222
59 -4 165 13 162 26 -1 4 3 18 9 32 6 14 10 28 9 32 0 3 10 18 24 33 l25 27
-30 -9 c-51 -14 -147 -6 -197 16 -69 29 -131 91 -163 162 -23 53 -27 71 -23
138 4 101 40 176 110 232 159 125 391 72 480 -109 31 -64 38 -184 13 -212 -15
-17 -42 -110 -27 -95 3 3 20 -18 39 -45 87 -130 248 -204 387 -179 114 20 246
110 302 205 l25 43 37 -17 c48 -22 75 -42 142 -106 61 -58 110 -77 194 -78
163 -1 284 117 348 339 19 66 23 102 23 233 0 140 -3 162 -26 232 -52 152
-164 280 -286 327 -53 20 -172 27 -228 14z m201 -418 c60 -27 117 -82 152
-150 23 -43 27 -63 27 -135 0 -73 -4 -92 -27 -135 -32 -62 -104 -130 -165
-157 -38 -17 -61 -20 -127 -16 -131 7 -219 67 -277 187 -32 65 -32 176 -1 246
73 161 257 232 418 160z"/>
<path d="M2763 1718 c-12 -6 -30 -30 -39 -54 -30 -80 11 -144 93 -144 49 0 89
16 99 39 12 30 21 101 12 101 -5 0 -7 4 -4 9 4 5 -8 21 -25 35 -33 28 -94 34
-136 14z"/>
<path d="M1685 1639 c-27 -3 -53 -4 -57 -2 -4 2 -9 -6 -13 -17 -3 -11 -10 -20
-14 -20 -4 0 -8 -6 -9 -12 -1 -7 -4 -26 -8 -42 -10 -41 18 -88 68 -115 40 -21
66 -29 38 -11 -11 7 -6 10 20 10 19 0 42 6 51 13 54 41 50 140 -8 187 -13 11
-31 13 -68 9z"/>
<path d="M530 865 c-182 -51 -427 -220 -466 -321 -17 -46 -14 -115 8 -141 8
-10 1 -13 -33 -15 l-44 -1 39 -4 c32 -4 50 -15 92 -58 240 -243 978 -241 1103
3 l18 35 -102 101 c-107 107 -152 168 -219 300 -37 72 -46 83 -81 95 -59 21
-247 24 -315 6z"/>
<path d="M3744 853 c-58 -13 -63 -17 -80 -56 -68 -155 -206 -321 -359 -431
-19 -13 -18 -16 30 -60 119 -111 336 -176 585 -176 218 1 376 46 467 134 34
33 55 63 59 84 4 20 13 32 23 33 14 0 14 1 1 7 -9 4 -16 24 -18 47 -10 121
-159 293 -329 379 -108 54 -252 69 -379 39z"/>
<path d="M2609 690 c-105 -55 -353 -85 -493 -61 -60 11 -177 44 -228 66 -20 8
-20 11 8 -128 13 -67 70 -207 84 -207 4 0 14 8 24 18 22 26 91 45 129 37 18
-4 49 -18 70 -32 34 -24 37 -29 37 -74 0 -56 -23 -79 -78 -79 -47 0 -32 -14
32 -30 108 -26 210 2 287 79 47 48 107 145 129 211 27 80 51 203 42 212 -4 3
-23 -2 -43 -12z m-165 -286 c11 -30 6 -85 -11 -112 -70 -111 -183 -110 -183 2
0 75 58 125 146 126 29 0 44 -5 48 -16z"/>
</g>
</svg>
