<?xml version="1.0" standalone="no"?>
<!DOCTYPE svg PUBLIC "-//W3C//DTD SVG 20010904//EN"
 "http://www.w3.org/TR/2001/REC-SVG-20010904/DTD/svg10.dtd">
<svg version="1.0" xmlns="http://www.w3.org/2000/svg"
 width="264.000000pt" height="191.000000pt" viewBox="0 0 264.000000 191.000000"
 preserveAspectRatio="xMidYMid meet">
<metadata>
Created by potrace 1.14, written by Peter Selinger 2001-2017
</metadata>
<g transform="translate(0.000000,191.000000) scale(0.100000,-0.100000)"
fill="#000000" stroke="none">
<path d="M1485 1900 c-146 -23 -292 -86 -418 -181 l-69 -52 -28 35 c-68 82
-194 102 -307 49 -216 -103 -292 -393 -137 -529 43 -39 99 -62 148 -62 29 0
30 -4 16 -81 -5 -30 -12 -75 -15 -102 -6 -45 -7 -47 -33 -41 -15 4 -45 23 -67
44 -74 67 -175 73 -251 15 -41 -31 -73 -94 -74 -142 0 -23 -7 -37 -25 -49 -13
-8 -33 -35 -44 -58 -25 -50 -17 -93 25 -137 l26 -27 -16 -50 c-9 -27 -15 -56
-14 -63 2 -9 -14 -15 -57 -20 -51 -6 -64 -12 -91 -42 -35 -38 -61 -129 -49
-169 20 -64 65 -85 215 -100 95 -9 135 -9 181 1 47 9 68 9 101 -1 47 -14 285
-14 378 0 l55 8 80 -55 c125 -87 200 -106 302 -76 58 17 134 80 153 126 l13
31 116 -7 c95 -5 136 -13 226 -43 178 -59 288 -48 373 39 35 36 72 98 72 122
0 8 29 34 65 57 103 67 185 163 246 288 47 97 52 114 57 193 9 168 -27 355
-99 509 l-40 84 27 60 c23 51 26 69 22 130 -3 44 -13 86 -26 111 -29 57 -96
121 -161 153 -49 24 -68 27 -151 27 -86 0 -100 -3 -147 -29 l-51 -28 -64 20
c-34 11 -88 26 -118 32 -76 15 -273 21 -345 10z m350 -64 c133 -29 222 -66
330 -139 201 -136 347 -357 400 -610 21 -97 19 -102 -22 -55 -123 136 -354
202 -480 137 -70 -36 -95 -84 -90 -170 5 -79 18 -103 106 -189 36 -36 82 -93
103 -127 65 -110 185 -160 285 -118 25 11 33 11 26 3 -88 -117 -158 -176 -280
-237 -171 -85 -410 -130 -620 -116 -96 7 -102 8 -107 31 -8 31 -73 104 -95
105 -9 0 11 9 44 20 78 24 107 55 155 167 22 50 60 120 84 156 51 75 61 111
54 201 -14 173 -124 262 -292 235 -175 -28 -316 -125 -387 -268 -32 -63 -34
-73 -34 -172 0 -90 4 -111 23 -148 53 -100 150 -166 264 -179 l52 -6 -39 -14
c-51 -18 -87 -11 -156 31 -70 42 -123 60 -155 52 -53 -14 -198 148 -244 271
-33 87 -43 188 -30 301 17 152 22 167 78 193 59 29 133 98 167 154 36 61 58
158 51 216 -6 46 -6 47 46 93 102 93 248 163 396 191 92 17 265 13 367 -9z
m437 -775 c30 -27 33 -35 33 -86 0 -53 -3 -59 -37 -91 -59 -54 -127 -43 -163
26 -59 115 74 235 167 151z m-716 -67 c54 -36 70 -113 34 -171 -56 -92 -194
-81 -243 20 -43 88 36 185 141 172 23 -2 54 -12 68 -21z m-1042 -33 c34 -19
66 -74 66 -114 0 -68 -68 -137 -134 -137 -96 0 -166 94 -137 183 14 43 38 65
88 82 42 15 73 11 117 -14z m161 -119 c25 -166 75 -270 180 -380 l74 -76 -29
-33 c-37 -42 -46 -75 -32 -121 6 -20 9 -38 7 -40 -8 -8 -249 -21 -290 -16 -68
9 -69 11 -36 51 59 74 77 178 43 243 -20 37 -66 65 -124 75 -33 6 -41 3 -80
-34 -64 -58 -123 -78 -130 -43 -5 20 37 142 65 189 18 31 19 31 52 17 110 -46
241 29 252 144 6 64 10 73 27 66 9 -3 18 -22 21 -42z"/>
<path d="M1924 699 c-36 -10 -91 -67 -100 -104 -13 -51 19 -95 89 -120 l27
-10 -25 -37 c-28 -41 -96 -78 -143 -78 -67 0 -142 54 -142 101 0 14 -7 19 -25
19 -32 0 -33 -28 -4 -80 44 -79 162 -111 257 -70 48 21 103 69 114 102 4 10
12 7 31 -10 77 -71 193 -51 217 38 11 40 -3 130 -20 130 -33 0 -40 -13 -34
-66 6 -44 3 -58 -11 -74 -23 -26 -69 -26 -106 1 -32 23 -38 39 -13 39 9 0 31
15 50 34 60 60 38 137 -50 177 -45 20 -65 22 -112 8z"/>
</g>
</svg>
